# xmcd
#
# Track frame offsets:
#	150
#	16242
#	33645
#	47022
#	66000
#	95499
#	114879
#	130089
#	147483
#	163443
#
# Disc length: 2413 seconds
#
# Revision: 0
# Processed by: cddbd v1.4PL0 Copyright (c) Steve Scherf et al.
# Submitted via: audiograbber 1.81.03
#
DISCID=88096b0a
DTITLE=Various Artist - Texas Blues Guitar (ED CD 7037)
DYEAR=1997
DGENRE=Blues
TTITLE0=Johnny Copeland - Claim Jumper
TTITLE1=Andson Funderburgh - Love Me With A Feeling
TTITLE2=Phillip Walker and Otis Grand - Insomnia
TTITLE3=Smokin' Joe Kubek Band - Texas Cadillac
TTITLE4=Clarence Gatemouth Brown - Sometimes I Slip
TTITLE5=Joe Guitar Hughes - Texas Guitar Slinger
TTITLE6=Mike Morgan and The Crawl - I'm Worried
TTITLE7=W.C. Clark - Rough Edges
TTITLE8=U.P. Wilson - Half Step
TTITLE9=Clarence Hollimon - Blues For Carol
EXTD=
EXTT0=
EXTT1=
EXTT2=
EXTT3=
EXTT4=
EXTT5=
EXTT6=
EXTT7=
EXTT8=
EXTT9=
PLAYORDER=
